<svg width="794" height="145" viewBox="0 0 794 145" fill="none" xmlns="http://www.w3.org/2000/svg">
<g clip-path="url(#clip0_51_73)">
<path d="M210.51 42.48L189.55 46.8C188.01 37.09 179.53 30.77 169.2 30.77C158.87 30.77 152.4 36.62 152.4 43.56C152.4 48.8 154.71 52.5 162.73 54.04L184.93 58.51C201.73 62.05 212.06 72.07 212.06 88.1C212.06 108.14 195.57 120.62 171.06 120.62C149.48 120.62 130.53 110.6 127.91 89.95L149.95 85.48C152.73 97.19 161.36 102.28 173.07 102.28C184.78 102.28 191.41 96.58 191.41 89.18C191.41 83.32 188.63 79.78 179.39 77.93L157.5 73.77C145.17 71.15 130.37 64.37 130.37 44.18C130.37 25.68 145.47 12.74 169.67 12.74C190.63 12.74 206.51 24.15 210.51 42.49" fill="white"/>
<path d="M358.56 79.93C358.56 104.13 339.6 120.31 317.1 120.31C294.6 120.31 275.18 104.13 275.18 79.93C275.18 55.73 294.14 39.55 317.1 39.55C340.06 39.55 358.56 55.73 358.56 79.93ZM338.83 79.93C338.83 65.6 327.73 56.96 317.1 56.96C306.47 56.96 294.91 65.59 294.91 79.93C294.91 94.2701 306.01 102.89 317.1 102.89C328.19 102.89 338.83 94.26 338.83 79.93Z" fill="white"/>
<path d="M425.61 87.02L444.41 91.8C440.09 109.37 424.22 120.62 405.88 120.62C383.38 120.62 364.73 104.13 364.73 79.93C364.73 55.73 383.38 39.08 405.88 39.08C423.76 39.08 439.33 50.18 444.41 67.44L424.84 72.99C422.06 62.2 414.82 57.73 405.88 57.73C393.09 57.73 384.46 66.82 384.46 79.93C384.46 93.04 393.09 101.97 405.88 101.97C414.82 101.97 422.06 97.65 425.61 87.02Z" fill="white"/>
<path d="M510.84 118.31L480.63 88.25H477.09V118.31H456.74V7.32996H477.09V68.22H480.79L508.38 41.4H533.96L496.82 78.23L537.97 118.31H510.84Z" fill="white"/>
<path d="M629.21 79.93C629.21 104.13 611.02 120.62 591.45 120.62C580.97 120.62 572.49 117.54 566.02 112.3V144.51H545.67V41.4H566.02V47.56C572.49 42.17 580.97 39.08 591.45 39.08C611.03 39.08 629.21 55.73 629.21 79.92M609.48 79.92C609.48 65.74 600.23 56.8 587.9 56.8C576.96 56.8 566.02 65.74 566.02 79.92C566.02 94.1 576.96 102.88 587.9 102.88C600.23 102.88 609.48 94.1 609.48 79.92Z" fill="white"/>
<path d="M665.12 18.43C665.12 25.21 659.88 30.3 652.79 30.3C645.7 30.3 640.46 25.21 640.46 18.43C640.46 11.65 645.55 6.25 652.79 6.25C660.03 6.25 665.12 11.95 665.12 18.43ZM642.62 41.39H662.96V118.3H642.62V41.4V41.39Z" fill="white"/>
<path d="M702.88 7.32996H682.54V118.3H702.88V7.32996Z" fill="white"/>
<path d="M793.98 85.32H735.41C737.41 96.42 745.27 103.2 754.67 103.2C760.68 103.2 768.23 102.43 773.78 93.03L791.97 96.88C785.19 112.91 771.47 120.61 754.67 120.61C732.94 120.61 715.21 104.12 715.21 79.92C715.21 55.72 732.93 39.08 754.97 39.08C775.47 39.08 793.19 54.96 793.96 78.38V85.31L793.98 85.32ZM736.03 70.99H773.17C770.55 61.13 763.15 56.81 754.98 56.81C747.27 56.81 738.49 61.43 736.02 70.99" fill="white"/>
<path d="M269.17 97.96C265.16 100.12 259.92 101.66 256.38 101.66C249.6 101.66 245.13 97.65 245.13 88.41V66.02L228.1 58.05H270.26V41.4H245.14V18.13H224.79V89.95C224.79 111.06 236.81 120.62 255 120.62C261.47 120.62 267.02 119.23 275.04 114.92L269.18 97.97L269.17 97.96Z" fill="white"/>
<path d="M0.00976562 83.45V111.11L50.7498 81.8001L98.0398 54.4901C100.19 53.25 101.51 50.96 101.51 48.48V20.8L50.7498 50.1301L3.47977 77.4401C1.32977 78.6801 0.00976562 80.97 0.00976562 83.45Z" fill="url(#paint0_linear_51_73)"/>
<path d="M0 22.31L36.37 1.30005C42.76 -2.38995 50.75 2.22005 50.75 9.60005V24.66L0 53.98V22.31Z" fill="url(#paint1_linear_51_73)"/>
<path d="M101.5 79.37V111.04L65.13 132.05C58.74 135.74 50.75 131.13 50.75 123.75V108.69L101.5 79.37Z" fill="url(#paint2_linear_51_73)"/>
</g>
<defs>
<linearGradient id="paint0_linear_51_73" x1="0.00976562" y1="65.95" x2="101.51" y2="65.95" gradientUnits="userSpaceOnUse">
<stop stop-color="#0D2EE4"/>
<stop offset="1" stop-color="#469FFE"/>
</linearGradient>
<linearGradient id="paint1_linear_51_73" x1="0" y1="26.99" x2="50.75" y2="26.99" gradientUnits="userSpaceOnUse">
<stop stop-color="#0D2EE4"/>
<stop offset="1" stop-color="#469FFE"/>
</linearGradient>
<linearGradient id="paint2_linear_51_73" x1="50.75" y1="106.36" x2="101.5" y2="106.36" gradientUnits="userSpaceOnUse">
<stop stop-color="#0D2EE4"/>
<stop offset="1" stop-color="#469FFE"/>
</linearGradient>
<clipPath id="clip0_51_73">
<rect width="793.98" height="144.51" fill="white"/>
</clipPath>
</defs>
</svg>
